<?xml version="1.0" encoding="utf-8"?>
<svg xmlns="http://www.w3.org/2000/svg" viewBox="0 0 500 500" xmlns:bx="https://boxy-svg.com" width="500px" height="500px"><defs><bx:export><bx:file format="svg" path="Sin título.svg"/></bx:export></defs><ellipse cx="177.298" cy="527.835" rx="352" ry="18" fill="#f2f2f2"/><path d="M 382.951 -26.412 L 378.952 -26.412 L 378.952 -135.958 C 378.952 -170.973 350.566 -199.359 315.55 -199.359 L 83.463 -199.359 C 48.448 -199.359 20.062 -170.974 20.061 -135.958 L 20.061 465.017 C 20.061 500.033 48.447 528.419 83.463 528.419 L 315.55 528.419 C 350.566 528.419 378.952 500.033 378.952 465.017 L 378.952 51.564 L 382.951 51.564 L 382.951 -26.412 Z" fill="#3f3d56"/><path d="M 365.457 -135.515 L 365.457 464.575 C 365.457 490.726 344.258 511.925 318.107 511.925 L 84.907 511.925 C 58.756 511.925 37.558 490.726 37.557 464.575 L 37.557 -135.515 C 37.558 -161.666 58.756 -182.865 84.907 -182.865 L 113.197 -182.865 C 107.176 -168.07 118.054 -151.887 134.027 -151.875 L 266.987 -151.875 C 282.96 -151.887 293.838 -168.07 287.817 -182.865 L 318.107 -182.865 C 344.258 -182.865 365.457 -161.666 365.457 -135.515 Z" fill="#fff"/><path d="M 290.331 123.241 C 288.781 124.051 287.204 124.818 285.601 125.541 C 284.141 126.201 282.658 126.821 281.151 127.401 C 280.601 127.611 280.041 127.821 279.481 128.031 C 275.054 129.637 270.506 130.891 265.881 131.781 C 263.591 132.231 261.271 132.584 258.921 132.841 C 256.981 133.061 255.021 133.218 253.041 133.311 C 251.631 133.381 250.221 133.411 248.801 133.411 C 243.178 133.413 237.566 132.888 232.041 131.841 C 230.601 131.581 229.191 131.271 227.781 130.931 C 220.961 129.296 214.358 126.859 208.111 123.671 C 207.551 123.391 206.991 123.091 206.431 122.801 C 205.601 122.361 204.791 121.901 203.981 121.421 C 204.371 120.881 204.791 120.351 205.221 119.831 C 225.049 95.259 261.822 93.347 284.091 115.731 C 285.915 117.561 287.606 119.52 289.151 121.591 C 289.561 122.131 289.951 122.681 290.331 123.241 Z" style="fill: rgb(90, 179, 39);"/><circle cx="250.797" cy="35.404" r="43.91" fill="#2f2e41"/><circle cx="642.499" cy="327.462" r="32.681" transform="matrix(0.877455, -0.479659, 0.479659, 0.877455, -474.033474, 71.547277)" fill="#a0616a"/><path d="M 281.14 30.144 C 273.672 35.291 264.808 38.03 255.738 37.994 C 258.973 40.237 262.657 41.753 266.534 42.435 C 254.475 45.022 242.011 45.092 229.924 42.641 C 227.237 42.21 224.644 41.32 222.26 40.009 C 219.857 38.667 218.137 36.367 217.529 33.682 C 216.726 29.094 220.302 24.925 224.017 22.115 C 235.538 13.537 250.302 10.587 264.234 14.079 C 268.726 15.24 273.227 17.202 276.145 20.81 C 279.063 24.418 279.927 29.98 277.147 33.695 L 281.14 30.144 Z" fill="#2f2e41"/><path d="M 248.801 -46.589 C 179.529 -46.599 136.223 28.383 170.85 88.379 C 178.388 101.439 189.085 112.395 201.961 120.241 L 202.541 120.581 C 203.021 120.871 203.501 121.151 203.981 121.421 C 204.791 121.901 205.601 122.361 206.431 122.801 C 206.991 123.091 207.551 123.391 208.111 123.671 C 214.358 126.859 220.961 129.296 227.781 130.931 C 229.191 131.271 230.601 131.581 232.041 131.841 C 237.566 132.888 243.178 133.413 248.801 133.411 C 250.221 133.411 251.631 133.381 253.041 133.311 C 255.021 133.221 256.981 133.064 258.921 132.841 C 261.271 132.581 263.591 132.228 265.881 131.781 C 270.506 130.891 275.054 129.637 279.481 128.031 C 280.041 127.821 280.601 127.611 281.151 127.401 C 282.661 126.821 284.144 126.201 285.601 125.541 C 287.201 124.821 288.778 124.054 290.331 123.241 C 305.899 115.088 318.766 102.593 327.371 87.271 C 327.411 87.191 327.461 87.111 327.501 87.031 C 332.092 78.792 335.349 69.879 337.151 60.621 C 347.936 5.061 305.398 -46.557 248.801 -46.589 L 248.801 -46.589 Z M 325.861 85.861 C 325.781 86.001 325.711 86.141 325.631 86.271 C 317.198 101.367 304.511 113.649 289.151 121.591 C 287.621 122.391 286.064 123.141 284.481 123.841 C 283.171 124.431 281.831 124.991 280.481 125.511 C 279.911 125.731 279.331 125.951 278.751 126.151 C 274.926 127.548 271.006 128.671 267.021 129.511 C 264.065 130.14 261.077 130.611 258.071 130.921 C 256.221 131.121 254.341 131.261 252.451 131.331 C 251.241 131.381 250.021 131.411 248.801 131.411 C 243.359 131.417 237.929 130.912 232.581 129.901 C 229.328 129.301 226.113 128.513 222.951 127.541 C 218.135 126.053 213.454 124.156 208.961 121.871 C 208.441 121.601 207.921 121.331 207.411 121.051 C 206.681 120.661 205.941 120.261 205.221 119.831 C 204.681 119.531 204.141 119.211 203.611 118.891 C 203.301 118.711 202.991 118.521 202.681 118.331 C 144.91 82.853 147.209 -1.86 206.82 -34.152 C 266.43 -66.444 338.644 -22.096 336.804 45.674 C 336.422 59.752 332.67 73.533 325.861 85.861 L 325.861 85.861 Z" fill="#3f3d56"/><path d="M 228.561 -7.9 C 228.088 -12.868 222.002 -15.926 217.243 -14.426 C 212.483 -12.925 209.359 -8.133 208.414 -3.233 C 207.496 0.935 208.275 5.297 210.579 8.89 C 212.985 12.352 217.406 14.513 221.529 13.634 C 226.236 12.631 229.498 8.034 230.431 3.313 C 231.364 -1.409 230.437 -6.276 229.512 -11 L 228.561 -7.9 Z" fill="#2f2e41"/><path d="M 295.543 -0.803 C 295.071 -5.771 288.984 -8.829 284.225 -7.329 C 279.466 -5.828 276.341 -1.036 275.396 3.865 C 274.478 8.033 275.258 12.394 277.562 15.987 C 279.967 19.449 284.388 21.61 288.512 20.731 C 293.219 19.728 296.48 15.131 297.413 10.41 C 298.346 5.688 297.42 0.821 296.494 -3.902 L 295.543 -0.803 Z" fill="#2f2e41"/><path d="M 93.237 79.379 C 91.978 79.378 90.778 78.847 89.931 77.915 L 40.309 23.782 C 39.17 22.543 37.565 21.836 35.882 21.834 L -226.337 21.834 C -234.623 21.825 -241.337 15.111 -241.346 6.825 L -241.346 -87.737 C -241.337 -96.023 -234.623 -102.737 -226.337 -102.747 L 113.388 -102.747 C 121.674 -102.737 128.388 -96.023 128.397 -87.737 L 128.397 6.825 C 128.388 15.111 121.674 21.825 113.388 21.834 L 103.757 21.834 C 100.442 21.838 97.756 24.525 97.752 27.839 L 97.752 74.873 C 97.76 76.732 96.618 78.402 94.882 79.068 C 94.358 79.273 93.8 79.379 93.237 79.379 Z" fill="#fff"/><path d="M 93.237 79.379 C 91.978 79.378 90.778 78.847 89.931 77.915 L 40.309 23.782 C 39.17 22.543 37.565 21.836 35.882 21.834 L -226.337 21.834 C -234.623 21.825 -241.337 15.111 -241.346 6.825 L -241.346 -87.737 C -241.337 -96.023 -234.623 -102.737 -226.337 -102.747 L 113.388 -102.747 C 121.674 -102.737 128.388 -96.023 128.397 -87.737 L 128.397 6.825 C 128.388 15.111 121.674 21.825 113.388 21.834 L 103.757 21.834 C 100.442 21.838 97.756 24.525 97.752 27.839 L 97.752 74.873 C 97.76 76.732 96.618 78.402 94.882 79.068 C 94.358 79.273 93.8 79.379 93.237 79.379 Z M -226.337 -100.747 C -233.519 -100.739 -239.338 -94.919 -239.346 -87.737 L -239.346 6.825 C -239.338 14.007 -233.519 19.826 -226.337 19.834 L 35.882 19.834 C 38.126 19.837 40.265 20.778 41.783 22.43 L 91.405 76.563 C 92.707 77.983 95.058 77.462 95.636 75.624 C 95.713 75.381 95.752 75.128 95.752 74.873 L 95.752 27.839 C 95.757 23.42 99.338 19.839 103.757 19.834 L 113.388 19.834 C 120.57 19.826 126.389 14.007 126.397 6.825 L 126.397 -87.737 C 126.389 -94.919 120.57 -100.739 113.388 -100.747 L -226.337 -100.747 Z" fill="#3f3d56"/><circle cx="-204.53" cy="-74.166" r="13.134" style="fill: rgb(90, 179, 39);"/><path d="M 98.065 -1.493 L -211.014 -1.493 C -216.407 -1.486 -219.784 -7.32 -217.093 -11.993 C -215.842 -14.167 -213.523 -15.505 -211.014 -15.502 L 98.065 -15.502 C 103.458 -15.496 106.821 -9.654 104.119 -4.988 C 102.868 -2.827 100.562 -1.496 98.065 -1.493 Z" fill="#e6e6e6"/><path d="M -2.626 -31.263 L -211.014 -31.263 C -216.407 -31.256 -219.784 -37.089 -217.093 -41.762 C -215.842 -43.936 -213.523 -45.275 -211.014 -45.272 L -2.626 -45.272 C 2.766 -45.272 6.136 -39.435 3.44 -34.765 C 2.189 -32.598 -0.124 -31.263 -2.626 -31.263 Z" fill="#e6e6e6"/><path d="M 313.72 400.068 C 311.985 399.402 310.842 397.732 310.85 395.873 L 310.85 348.839 C 310.846 345.525 308.16 342.838 304.845 342.834 L 295.214 342.834 C 286.929 342.825 280.214 336.111 280.205 327.825 L 280.205 233.263 C 280.214 224.977 286.929 218.263 295.214 218.253 L 634.939 218.253 C 643.225 218.263 649.939 224.977 649.949 233.263 L 649.949 327.825 C 649.939 336.111 643.225 342.825 634.939 342.834 L 372.72 342.834 C 371.037 342.836 369.432 343.543 368.293 344.782 L 318.671 398.915 C 317.824 399.847 316.624 400.378 315.365 400.379 C 314.802 400.379 314.244 400.273 313.72 400.068 Z" fill="#fff"/><path d="M 313.72 400.068 C 311.985 399.402 310.842 397.732 310.85 395.873 L 310.85 348.839 C 310.846 345.525 308.16 342.838 304.845 342.834 L 295.214 342.834 C 286.929 342.825 280.214 336.111 280.205 327.825 L 280.205 233.263 C 280.214 224.977 286.929 218.263 295.214 218.253 L 634.939 218.253 C 643.225 218.263 649.939 224.977 649.949 233.263 L 649.949 327.825 C 649.939 336.111 643.225 342.825 634.939 342.834 L 372.72 342.834 C 371.037 342.836 369.432 343.543 368.293 344.782 L 318.671 398.915 C 317.824 399.847 316.624 400.378 315.365 400.379 C 314.802 400.379 314.244 400.273 313.72 400.068 Z M 295.214 220.253 C 288.033 220.261 282.213 226.081 282.205 233.263 L 282.205 327.825 C 282.213 335.007 288.033 340.826 295.214 340.834 L 304.845 340.834 C 309.264 340.839 312.845 344.42 312.85 348.839 L 312.85 395.873 C 312.85 397.799 314.936 399.003 316.604 398.039 C 316.825 397.912 317.025 397.751 317.197 397.563 L 366.819 343.43 C 368.337 341.778 370.477 340.837 372.72 340.834 L 634.939 340.834 C 642.121 340.826 647.94 335.007 647.949 327.825 L 647.949 233.263 C 647.94 226.081 642.121 220.262 634.939 220.253 L 295.214 220.253 Z" fill="#3f3d56"/><path d="M 207.831 429.351 C 179.417 447.546 143.16 448.123 114.181 430.841 C 116.68 426.188 119.848 421.926 123.581 418.191 C 148.265 393.389 189.729 398.613 207.491 428.761 C 207.601 428.951 207.721 429.151 207.831 429.351 Z" style="fill: rgb(90, 179, 39);"/><circle cx="157.097" cy="337.329" r="44.202" fill="#2f2e41"/><circle cx="556.819" cy="629.489" r="32.898" transform="matrix(0.479659, -0.877455, 0.877455, 0.479659, -658.310839, 539.36949)" fill="#ffb8b8"/><path d="M 126.551 332.033 C 134.069 337.215 142.992 339.972 152.122 339.936 C 148.865 342.194 145.158 343.72 141.255 344.407 C 153.394 347.011 165.94 347.082 178.108 344.614 C 180.813 344.18 183.422 343.284 185.823 341.964 C 188.242 340.613 189.973 338.298 190.585 335.596 C 191.393 330.977 187.794 326.78 184.054 323.952 C 172.457 315.317 157.595 312.347 143.57 315.862 C 139.048 317.031 134.517 319.006 131.58 322.638 C 128.642 326.27 127.772 331.869 130.571 335.608 L 126.551 332.033 Z" fill="#2f2e41"/><path d="M 159.801 444.411 C 90.541 444.389 47.276 369.399 81.925 309.429 C 116.574 249.458 203.149 249.485 237.761 309.477 C 261.779 351.106 248.837 404.262 208.372 430.192 C 193.878 439.486 177.019 444.421 159.801 444.411 Z M 159.801 266.411 C 92.052 266.405 49.702 339.741 83.571 398.417 C 117.441 457.092 202.127 457.099 236.006 398.43 C 243.735 385.047 247.803 369.865 247.801 354.411 C 247.746 305.833 208.379 266.466 159.801 266.411 Z" fill="#3f3d56"/><circle cx="322.47" cy="245.834" r="13.134" style="fill: rgb(90, 179, 39);"/><path d="M 625.065 318.507 L 315.986 318.507 C 310.593 318.514 307.216 312.68 309.907 308.007 C 311.158 305.833 313.477 304.495 315.986 304.498 L 625.065 304.498 C 630.458 304.498 633.828 310.335 631.132 315.005 C 629.88 317.172 627.568 318.507 625.065 318.507 Z" fill="#e6e6e6"/><path d="M 524.374 288.737 L 315.986 288.737 C 310.593 288.744 307.216 282.911 309.907 278.238 C 311.158 276.064 313.477 274.725 315.986 274.728 L 524.374 274.728 C 529.766 274.735 533.129 280.576 530.427 285.242 C 529.177 287.403 526.87 288.734 524.374 288.737 Z" fill="#e6e6e6"/><ellipse cx="313.298" cy="406.302" rx="24.504" ry="2.72" fill="#f2f2f2"/><ellipse cx="94.298" cy="86.302" rx="24.504" ry="2.72" fill="#f2f2f2"/></svg>